<svg xmlns="http://www.w3.org/2000/svg" version="1.1" xmlns:xlink="http://www.w3.org/1999/xlink" width="200" height="200"><svg xmlns="http://www.w3.org/2000/svg" version="1.1" xmlns:xlink="http://www.w3.org/1999/xlink" viewBox="0 0 200 200"><rect width="200" height="200" fill="url('#gradient')"></rect><defs><linearGradient id="SvgjsLinearGradient1031" gradientTransform="rotate(45 0.5 0.5)"><stop offset="0%" stop-color="#000000"></stop><stop offset="100%" stop-color="#000000"></stop></linearGradient></defs><g><g fill="hsla(354,60%,50%,1)" transform="matrix(4.0105576841209025,0,0,4.0105576841209025,5.491756670857654,128.49938596755507)" stroke="hsla(327,7%,75%,1)" stroke-width="0"><path d="M8.41-3.78L8.41-3.78Q8.41-4.53 7.88-4.95Q7.34-5.37 6.01-5.82Q4.67-6.27 3.82-6.69L3.82-6.69Q1.05-8.05 1.05-10.42L1.05-10.42Q1.05-11.60 1.74-12.50Q2.43-13.41 3.69-13.91Q4.95-14.41 6.52-14.41L6.52-14.41Q8.06-14.41 9.27-13.87Q10.49-13.32 11.16-12.31Q11.84-11.30 11.84-10L11.84-10L8.42-10Q8.42-10.87 7.89-11.35Q7.35-11.83 6.45-11.83L6.45-11.83Q5.53-11.83 5.00-11.42Q4.46-11.02 4.46-10.39L4.46-10.39Q4.46-9.84 5.05-9.40Q5.63-8.96 7.11-8.48Q8.58-8.01 9.53-7.46L9.53-7.46Q11.84-6.13 11.84-3.80L11.84-3.80Q11.84-1.93 10.43-0.87Q9.02 0.20 6.57 0.20L6.57 0.20Q4.84 0.20 3.44-0.42Q2.04-1.04 1.33-2.12Q0.63-3.20 0.63-4.61L0.63-4.61L4.06-4.61Q4.06-3.47 4.65-2.92Q5.24-2.38 6.57-2.38L6.57-2.38Q7.42-2.38 7.92-2.75Q8.41-3.12 8.41-3.78ZM17.91-2.34L17.91-2.34Q18.60-2.34 18.98-2.72Q19.37-3.10 19.36-3.77L19.36-3.77L22.44-3.77Q22.44-2.03 21.20-0.92Q19.95 0.20 17.99 0.20L17.99 0.20Q15.68 0.20 14.36-1.25Q13.03-2.70 13.03-5.25L13.03-5.25L13.03-5.39Q13.03-6.99 13.62-8.22Q14.21-9.44 15.32-10.10Q16.44-10.76 17.96-10.76L17.96-10.76Q20.02-10.76 21.23-9.62Q22.44-8.48 22.44-6.52L22.44-6.52L19.36-6.52Q19.36-7.34 18.96-7.78Q18.55-8.22 17.88-8.22L17.88-8.22Q16.60-8.22 16.39-6.59L16.39-6.59Q16.32-6.07 16.32-5.17L16.32-5.17Q16.32-3.57 16.70-2.96Q17.08-2.34 17.91-2.34ZM29.60-4.82L27.41-4.82L27.41 0L23.98 0L23.98-14.22L29.66-14.22Q31.29-14.22 32.54-13.62Q33.80-13.02 34.49-11.91Q35.18-10.80 35.18-9.39L35.18-9.39Q35.18-7.31 33.69-6.07Q32.20-4.82 29.60-4.82L29.60-4.82ZM27.41-11.57L27.41-7.47L29.66-7.47Q30.65-7.47 31.18-7.97Q31.70-8.47 31.70-9.38L31.70-9.38Q31.70-10.37 31.16-10.97Q30.63-11.56 29.70-11.57L29.70-11.57L27.41-11.57ZM36.32-4.82L36.31-5.38Q36.31-6.96 36.92-8.20Q37.54-9.43 38.69-10.10Q39.84-10.76 41.40-10.76L41.40-10.76Q43.77-10.76 45.14-9.29Q46.50-7.82 46.50-5.29L46.50-5.29L46.50-5.18Q46.50-2.71 45.13-1.25Q43.76 0.20 41.42 0.20L41.42 0.20Q39.16 0.20 37.79-1.16Q36.43-2.51 36.32-4.82L36.32-4.82ZM39.61-5.77L39.60-5.18Q39.60-3.71 40.06-3.03Q40.52-2.34 41.42-2.34L41.42-2.34Q43.17-2.34 43.21-5.05L43.21-5.05L43.21-5.38Q43.21-8.22 41.40-8.22L41.40-8.22Q39.75-8.22 39.61-5.77L39.61-5.77Z"></path></g></g></svg><style>@media (prefers-color-scheme: light) { :root { filter: none; } }
@media (prefers-color-scheme: dark) { :root { filter: none; } }
</style></svg>